<svg xmlns="http://www.w3.org/2000/svg" width="28" height="28" viewBox="0 0 28 28">
    <g fill="none" fill-rule="evenodd">
        <g>
            <g>
                <g>
                    <path d="M0 0H28V28H0z" transform="translate(-1241 -389) translate(1241 343) translate(0 46)"/>
                    <path fill="#1F8ECD" d="M0 8.283L3.499 12.2 6.04 11.649 4.817 13.74 8.286 17.667 10.621 10.743 7.934 8.238zM17.38 10.744L19.715 17.667 23.182 13.741 21.961 11.65 24.501 12.2 28 8.284 20.068 8.238zM14.015 11.381L13.985 11.381 13.123 11.381 10.621 21.872 13.957 25 14.043 25 17.38 21.872 14.877 11.381zM11.825 3L9.621 6.341 13.592 9.286 14.649 9.286 18.621 6.341 16.417 3z" transform="translate(-1241 -389) translate(1241 343) translate(0 46)"/>
                </g>
            </g>
        </g>
    </g>
</svg>
