<svg xmlns="http://www.w3.org/2000/svg" xmlns:xlink="http://www.w3.org/1999/xlink" width="16" height="16" viewBox="0 0 16 16">
    <defs>
        <path id="prefix__a" d="M0 0.032L0 4.184 4.157 4.184 4.157 0.032 0 0.032z"/>
        <path id="prefix__c" d="M0.145 5.217L3.071 5.217 3.071 0.045 0.145 0.045z"/>
    </defs>
    <g fill="none" fill-rule="evenodd">
        <rect width="16" height="16" fill="#C8311E" rx="8"/>
        <g>
            <path fill="#FFF" d="M5.444 0L4.941.001 4.438 0 3.254 1.413 4.034 2.133 4.933 2.133 4.949 2.133 5.848 2.133 6.628 1.413zM5.845 2.306L4.95 2.306 4.933 2.306 4.037 2.306 3.885 2.599 4.274 2.786 4.933 2.786 4.95 2.786 5.608 2.786 5.997 2.599z" transform="translate(3 4.5)"/>
            <g transform="translate(3 4.5) translate(0 1.162)">
                <mask id="prefix__b" fill="#fff">
                    <use xlink:href="#prefix__a"/>
                </mask>
                <path fill="#FFF" d="M4 3.416l.117-.016c.043-.37.046-.77.033-1.138-.32-.14-.722-.43-1.095-1.027 0 0-.992.539-3-1.203L0 1.053s.085 1.554 1.404 2.342c1.197.716 1.524.789 1.524.789s0-.6 1.073-.768" mask="url(#prefix__b)"/>
                <path fill="#FFF" d="M9.828.032C7.82 1.774 6.826 1.234 6.826 1.234c-.372.599-.773.889-1.094 1.028-.013.368-.01.767.033 1.138l.117.016c1.072.168 1.072.768 1.072.768s.326-.073 1.524-.789c1.319-.788 1.404-2.342 1.404-2.342L9.828.032z"/>
                <g transform="translate(3.333 1.391)">
                    <mask id="prefix__d" fill="#fff">
                        <use xlink:href="#prefix__c"/>
                    </mask>
                    <path fill="#FFF" d="M2.287 2.254C2.143 1.348 2.34.12 2.34.12L1.616.046V.045H1.6v.001L.875.12s.198 1.228.053 2.134C.784 3.159.13 4.408.145 4.75c.016.343.176.467.176.467h2.574s.16-.124.175-.467c.016-.343-.639-1.592-.783-2.497" mask="url(#prefix__d)"/>
                </g>
            </g>
        </g>
    </g>
</svg>
