<svg xmlns="http://www.w3.org/2000/svg" width="28" height="28" viewBox="0 0 28 28">
    <g fill="none" fill-rule="evenodd">
        <g>
            <g>
                <g>
                    <g>
                        <g>
                            <path d="M0 0H28V28H0z" transform="translate(-1011 -423) translate(489 283) translate(522 52) translate(0 86) translate(0 2)"/>
                            <path fill="#1F8ECD" d="M14.558 27.87s1.923-7.13 0-14C12.636 7 7.126 1.685 4.948 0c0 0 3.331 9.333 3.844 15.426 0 0-1.921-4.754-6.792-5.963 0 0 3.376 7 4.017 10.889 0 0 4.57 2.894 8.541 7.518M25.579 8.231c-3.907 1.954-6.55 6.735-7.827 9.555.37 2.645.407 5.201.285 7.433 2.263-1.786 4.658-5.126 4.658-5.126s.45-3.436.385-5.445c-.064-2.01 2.499-6.417 2.499-6.417M16.908 13.98c.442-.788.925-1.6 1.447-2.415.113-.696.24-1.475.39-2.36.704-4.149 3.908-8.403 3.908-8.403-4.741 2.487-7.24 7.754-7.24 7.754-.092.205-.16.408-.233.61.628 1.373 1.18 2.802 1.597 4.292.049.174.086.348.131.523" transform="translate(-1011 -423) translate(489 283) translate(522 52) translate(0 86) translate(0 2)"/>
                        </g>
                    </g>
                </g>
            </g>
        </g>
    </g>
</svg>
